<svg width="27" height="42" viewBox="0 0 27 42" fill="none" xmlns="http://www.w3.org/2000/svg">
<path d="M16.6775 42H9.05952C7.78708 42 6.752 41.0861 6.752 39.9627V24.792H2.30752C1.03508 24.792 0 23.8778 0 22.7547V16.254C0 15.1306 1.03508 14.2167 2.30752 14.2167H6.752V10.9614C6.752 7.73369 7.89995 4.98756 10.0714 3.02042C12.2526 1.0443 15.3009 0 18.8866 0L24.6965 0.00833126C25.9667 0.0102539 27 0.924133 27 2.04565V8.08136C27 9.2048 25.9653 10.1187 24.6932 10.1187L20.7815 10.12C19.5886 10.12 19.2848 10.3311 19.2198 10.3959C19.1128 10.5032 18.9854 10.8067 18.9854 11.6446V14.2164H24.3992C24.8068 14.2164 25.2017 14.3052 25.541 14.4724C26.273 14.8336 26.7282 15.5164 26.7282 16.2544L26.7253 22.755C26.7253 23.8778 25.6902 24.7917 24.4177 24.7917H18.9854V39.9627C18.9854 41.0861 17.9499 42 16.6775 42ZM9.54077 39.5378H16.1962V23.6897C16.1962 22.9396 16.8876 22.3295 17.7369 22.3295H23.9365L23.939 16.6789H17.7365C16.8872 16.6789 16.1962 16.0688 16.1962 15.3187V11.6446C16.1962 10.6826 16.3069 9.58868 17.1293 8.76645C18.123 7.77246 19.6891 7.65775 20.7808 7.65775L24.2112 7.65646V2.46991L18.8845 2.46222C13.1218 2.46222 9.54077 5.71912 9.54077 10.9614V15.3187C9.54077 16.0685 8.84975 16.6789 8.00048 16.6789H2.78877V22.3295H8.00048C8.84975 22.3295 9.54077 22.9396 9.54077 23.6897V39.5378ZM24.691 2.47055H24.6914H24.691Z" fill="white"/>
</svg>
