<svg width="42" height="42" viewBox="0 0 42 42" fill="none" xmlns="http://www.w3.org/2000/svg">
<g clip-path="url(#clip0)">
<path d="M30.2731 0.428589H11.2362C5.04046 0.428589 0 5.46905 0 11.6648V30.7021C0 36.8975 5.04046 41.9379 11.2362 41.9379H30.2735C36.4689 41.9379 41.5094 36.8975 41.5094 30.7021V11.6648C41.5094 5.46905 36.4689 0.428589 30.2731 0.428589V0.428589ZM39.0759 30.7021C39.0759 35.5557 35.1271 39.5045 30.2731 39.5045H11.2362C6.38228 39.5045 2.43346 35.5557 2.43346 30.7021V11.6648C2.43346 6.81087 6.38228 2.86204 11.2362 2.86204H30.2735C35.1271 2.86204 39.0759 6.81087 39.0759 11.6648V30.7021Z" fill="white"/>
<path d="M20.7547 9.83337C14.4962 9.83337 9.40479 14.9248 9.40479 21.1833C9.40479 27.4417 14.4962 32.5332 20.7547 32.5332C27.0131 32.5332 32.1046 27.4417 32.1046 21.1833C32.1046 14.9248 27.0131 9.83337 20.7547 9.83337ZM20.7547 30.0997C15.8384 30.0997 11.8382 26.0999 11.8382 21.1833C11.8382 16.267 15.8384 12.2668 20.7547 12.2668C25.6713 12.2668 29.6711 16.267 29.6711 21.1833C29.6711 26.0999 25.6713 30.0997 20.7547 30.0997Z" fill="white"/>
<path d="M32.376 5.80252C30.5265 5.80252 29.0222 7.30712 29.0222 9.15628C29.0222 11.0058 30.5265 12.5104 32.376 12.5104C34.2255 12.5104 35.7301 11.0058 35.7301 9.15628C35.7301 7.3068 34.2255 5.80252 32.376 5.80252ZM32.376 10.0766C31.8686 10.0766 31.4557 9.66362 31.4557 9.15628C31.4557 8.64863 31.8686 8.23598 32.376 8.23598C32.8836 8.23598 33.2966 8.64863 33.2966 9.15628C33.2966 9.66362 32.8836 10.0766 32.376 10.0766Z" fill="white"/>
</g>
<defs>
<clipPath id="clip0">
<rect width="41.5094" height="41.5094" fill="white" transform="translate(0 0.428589)"/>
</clipPath>
</defs>
</svg>
