<svg width="55" height="42" viewBox="0 0 55 42" fill="none" xmlns="http://www.w3.org/2000/svg">
<g clip-path="url(#clip0)">
<path d="M35.9656 18.457L23.8148 11.8086C23.1162 11.4264 22.2904 11.4406 21.6056 11.8464C20.9203 12.2526 20.5116 12.9701 20.5116 13.7666V26.9492C20.5116 27.7419 20.9178 28.4582 21.5984 28.8648C21.9538 29.0771 22.3479 29.1837 22.7427 29.1837C23.1044 29.1837 23.467 29.0943 23.8006 28.9147L35.9518 22.3809C36.6731 21.9927 37.1233 21.2429 37.1267 20.4234C37.1296 19.6039 36.6848 18.8506 35.9656 18.457ZM23.7347 25.2909V15.4383L32.816 20.4074L23.7347 25.2909Z" fill="white"/>
<path d="M54.5953 9.92078L54.5928 9.89561C54.5462 9.45291 54.0825 5.51523 52.1682 3.5124C49.9556 1.15667 47.4471 0.870491 46.2407 0.733276C46.1409 0.721947 46.0494 0.711456 45.9676 0.700546L45.8715 0.690475C38.6004 0.161758 27.6195 0.0895844 27.5095 0.0891647L27.4999 0.0887451L27.4902 0.0891647C27.3803 0.0895844 16.3994 0.161758 9.06285 0.690475L8.96591 0.700546C8.88787 0.711037 8.80185 0.720688 8.70827 0.731598C7.51573 0.869232 5.03412 1.15583 2.8152 3.59674C0.99197 5.57817 0.464933 9.43151 0.410803 9.86456L0.404509 9.92078C0.388144 10.105 0 14.4904 0 18.893V23.0086C0 27.4112 0.388144 31.7967 0.404509 31.9813L0.407446 32.009C0.454023 32.4445 0.917278 36.3101 2.82275 38.3137C4.9032 40.5906 7.53377 40.8919 8.94871 41.0538C9.17237 41.0794 9.36497 41.1012 9.49631 41.1243L9.62345 41.1419C13.8217 41.5414 26.9846 41.7382 27.5427 41.7462L27.5595 41.7466L27.5763 41.7462C27.6862 41.7458 38.6667 41.6736 45.9378 41.1449L46.0339 41.1348C46.1258 41.1226 46.229 41.1117 46.3423 41.1C47.5281 40.9741 49.9963 40.7127 52.1846 38.3049C54.0078 36.3231 54.5353 32.4697 54.589 32.0371L54.5953 31.9809C54.6116 31.7962 55.0002 27.4112 55.0002 23.0086V18.893C54.9998 14.4904 54.6116 10.1054 54.5953 9.92078ZM51.7767 23.0086C51.7767 27.0835 51.4209 31.2801 51.3873 31.6653C51.2505 32.7265 50.6945 35.1645 49.8062 36.13C48.4366 37.6369 47.0296 37.7863 46.0024 37.895C45.8782 37.908 45.7632 37.9205 45.6592 37.9336C38.6264 38.4421 28.0601 38.5202 27.5733 38.5231C27.0274 38.5151 14.0571 38.3167 9.98684 37.9386C9.77829 37.9046 9.55296 37.8786 9.31545 37.8517C8.11074 37.7137 6.46165 37.5248 5.19358 36.13L5.16378 36.0982C4.29098 35.1888 3.75094 32.9091 3.61372 31.6779C3.58813 31.3867 3.22306 27.1406 3.22306 23.0086V18.893C3.22306 14.8227 3.57806 10.6308 3.61247 10.2376C3.7757 8.98756 4.34218 6.69729 5.19358 5.77161C6.60516 4.21903 8.09354 4.04699 9.07795 3.93327C9.17195 3.92236 9.25965 3.91229 9.34063 3.9018C16.4758 3.39071 27.118 3.31476 27.4999 3.31182C27.8817 3.31434 38.5202 3.39071 45.592 3.9018C45.6789 3.91271 45.7737 3.92362 45.8757 3.93537C46.8882 4.05077 48.4185 4.22533 49.823 5.72336L49.836 5.73721C50.7088 6.64651 51.2488 8.96616 51.3861 10.2221C51.4104 10.4969 51.7767 14.7523 51.7767 18.893V23.0086Z" fill="white"/>
</g>
<defs>
<clipPath id="clip0">
<rect width="55" height="41" fill="white" transform="translate(0 0.428589)"/>
</clipPath>
</defs>
</svg>
